<svg width="84" height="22" viewBox="0 0 84 22" fill="none" xmlns="http://www.w3.org/2000/svg">
<path d="M36.14 4.4V17H34.484V7.154L30.362 14.012H30.146L26.024 7.172V17H24.35V4.4H26.24L30.254 11.06L34.25 4.4H36.14ZM46.1244 8H47.6904V17H46.1244V15.452C45.3444 16.64 44.2104 17.234 42.7224 17.234C41.4624 17.234 40.3884 16.778 39.5004 15.866C38.6124 14.942 38.1684 13.82 38.1684 12.5C38.1684 11.18 38.6124 10.064 39.5004 9.152C40.3884 8.228 41.4624 7.766 42.7224 7.766C44.2104 7.766 45.3444 8.36 46.1244 9.548V8ZM42.9204 15.722C43.8324 15.722 44.5944 15.416 45.2064 14.804C45.8184 14.18 46.1244 13.412 46.1244 12.5C46.1244 11.588 45.8184 10.826 45.2064 10.214C44.5944 9.59 43.8324 9.278 42.9204 9.278C42.0204 9.278 41.2644 9.59 40.6524 10.214C40.0404 10.826 39.7344 11.588 39.7344 12.5C39.7344 13.412 40.0404 14.18 40.6524 14.804C41.2644 15.416 42.0204 15.722 42.9204 15.722ZM54.293 17.234C52.937 17.234 51.809 16.784 50.909 15.884C50.009 14.972 49.559 13.844 49.559 12.5C49.559 11.156 50.009 10.034 50.909 9.134C51.809 8.222 52.937 7.766 54.293 7.766C55.181 7.766 55.979 7.982 56.687 8.414C57.395 8.834 57.923 9.404 58.271 10.124L56.957 10.88C56.729 10.4 56.375 10.016 55.895 9.728C55.427 9.44 54.893 9.296 54.293 9.296C53.393 9.296 52.637 9.602 52.025 10.214C51.425 10.826 51.125 11.588 51.125 12.5C51.125 13.4 51.425 14.156 52.025 14.768C52.637 15.38 53.393 15.686 54.293 15.686C54.893 15.686 55.433 15.548 55.913 15.272C56.393 14.984 56.759 14.6 57.011 14.12L58.343 14.894C57.959 15.602 57.407 16.172 56.687 16.604C55.967 17.024 55.169 17.234 54.293 17.234ZM70.5448 15.326C69.2848 16.598 67.7428 17.234 65.9188 17.234C64.0948 17.234 62.5528 16.598 61.2928 15.326C60.0328 14.054 59.4028 12.512 59.4028 10.7C59.4028 8.876 60.0328 7.334 61.2928 6.074C62.5528 4.802 64.0948 4.166 65.9188 4.166C67.7428 4.166 69.2848 4.802 70.5448 6.074C71.8168 7.334 72.4528 8.876 72.4528 10.7C72.4528 12.512 71.8168 14.054 70.5448 15.326ZM62.4448 14.192C63.3808 15.128 64.5388 15.596 65.9188 15.596C67.2988 15.596 68.4508 15.128 69.3748 14.192C70.3108 13.244 70.7788 12.08 70.7788 10.7C70.7788 9.308 70.3108 8.144 69.3748 7.208C68.4508 6.26 67.2988 5.786 65.9188 5.786C64.5388 5.786 63.3808 6.26 62.4448 7.208C61.5208 8.144 61.0588 9.308 61.0588 10.7C61.0588 12.08 61.5208 13.244 62.4448 14.192ZM78.0762 17.234C76.9002 17.234 75.8922 16.958 75.0522 16.406C74.2242 15.854 73.6422 15.098 73.3062 14.138L74.7462 13.31C75.2382 14.834 76.3602 15.596 78.1122 15.596C78.9762 15.596 79.6362 15.422 80.0922 15.074C80.5482 14.714 80.7762 14.24 80.7762 13.652C80.7762 13.052 80.5482 12.602 80.0922 12.302C79.6362 12.002 78.8742 11.684 77.8062 11.348C77.2782 11.18 76.8762 11.048 76.6002 10.952C76.3242 10.844 75.9762 10.688 75.5562 10.484C75.1482 10.268 74.8422 10.052 74.6382 9.836C74.4342 9.608 74.2482 9.314 74.0802 8.954C73.9242 8.594 73.8462 8.186 73.8462 7.73C73.8462 6.638 74.2302 5.774 74.9982 5.138C75.7662 4.49 76.7022 4.166 77.8062 4.166C78.8022 4.166 79.6662 4.418 80.3982 4.922C81.1422 5.426 81.7002 6.092 82.0722 6.92L80.6682 7.73C80.1282 6.434 79.1742 5.786 77.8062 5.786C77.1222 5.786 76.5702 5.954 76.1502 6.29C75.7302 6.626 75.5202 7.082 75.5202 7.658C75.5202 8.21 75.7182 8.63 76.1142 8.918C76.5102 9.206 77.1942 9.506 78.1662 9.818C78.5142 9.926 78.7602 10.004 78.9042 10.052C79.0482 10.1 79.2702 10.184 79.5702 10.304C79.8822 10.424 80.1102 10.52 80.2542 10.592C80.3982 10.664 80.5902 10.766 80.8302 10.898C81.0822 11.03 81.2682 11.156 81.3882 11.276C81.5082 11.396 81.6462 11.546 81.8022 11.726C81.9702 11.894 82.0902 12.068 82.1622 12.248C82.2342 12.428 82.2942 12.638 82.3422 12.878C82.4022 13.106 82.4322 13.352 82.4322 13.616C82.4322 14.72 82.0302 15.602 81.2262 16.262C80.4222 16.91 79.3722 17.234 78.0762 17.234Z" fill="#8E8BFF"/>
<path d="M12.0326 10.3985C12.0258 9.25096 12.5562 8.38609 13.6275 7.74837C13.0283 6.90706 12.1219 6.44434 10.927 6.35516C9.79571 6.26766 8.55794 7.00129 8.10472 7.00129C7.62575 7.00129 6.53047 6.38545 5.66867 6.38545C3.89013 6.41237 2 7.77529 2 10.5483C2 11.3677 2.15279 12.2141 2.45837 13.0857C2.86695 14.2332 4.33991 17.0449 5.87639 16.9995C6.67983 16.9809 7.24807 16.4408 8.29356 16.4408C9.30815 16.4408 9.83348 16.9995 10.7296 16.9995C12.2798 16.9776 13.612 14.4217 14 13.2708C11.921 12.31 12.0326 10.4574 12.0326 10.3985ZM10.2283 5.2665C11.0987 4.25356 11.0197 3.33148 10.994 3C10.2249 3.04375 9.33562 3.5132 8.82918 4.09034C8.27124 4.70955 7.94335 5.47514 8.01373 6.33833C8.84464 6.40059 9.60343 5.98161 10.2283 5.2665Z" fill="#8E8BFF"/>
</svg>
